<?xml version="1.0" encoding="UTF-8"?>
<svg viewBox="0 0 160 80" xmlns="http://www.w3.org/2000/svg" xmlns:xlink="http://www.w3.org/1999/xlink" version="1.1">
 <!-- Generated by Pixelmator Pro 1.5.5 -->
 <path id="Tracé" d="M28 12 C12.536 12 0 24.536 0 40 L0 40 C0 55.464 12.536 68 28 68 L130 68 C145.464 68 158 55.464 158 40 L158 40 C158 24.536 145.464 12 130 12 Z" fill="#ff9998" fill-opacity="1" stroke="#361212" stroke-width="1" stroke-opacity="1" stroke-linejoin="round"/>
 <defs>
  <text id="string" transform="matrix(1.0 0.0 0.0 1.0 19.0 9.5)" fill="#000000" x="1.5495312500000011" font-size="48" font-family="Verdana, Verdana" text-decoration="none" y="48.0">P1</text>
 </defs>
 <use id="P1" xlink:href="#string"/>
 <path id="Ellipse" d="M159.5 39.75 C159.5 17.797 141.703 0 119.75 0 97.797 0 80 17.797 80 39.75 80 61.703 97.797 79.5 119.75 79.5 141.703 79.5 159.5 61.703 159.5 39.75 Z" fill="#ffffff" fill-opacity="1" stroke="#361212" stroke-width="1" stroke-opacity="1" stroke-linejoin="round"/>
 <defs>
  <text id="string-1" transform="matrix(1.0 0.0 0.0 1.0 102.0 9.5)" fill="#000000" x="1.2337500000000006" font-size="48" font-family="Verdana, Verdana" text-decoration="none" y="48.0">A</text>
 </defs>
 <use id="A" xlink:href="#string-1"/>
</svg>
